#N canvas 298 228 1065 654 10;
#X obj 238 301 tgl 15 0 empty empty empty 17 7 0 10 -262144 -1 -1 1
1;
#X obj 50 -19 loadbang;
#X obj 50 21 t b b;
#X msg 43 58 connect localhost 8005;
#X msg 80 93 format 16bit;
#X obj 364 18 osc~ 440;
#X obj 361 47 *~ 220;
#X obj 357 77 osc~;
#X floatatom 364 -15 5 0 0 0 - - -, f 5;
#X obj 138 272 udpsend~ 1 2048;
#X obj 50 2 bng 15 250 50 0 empty empty empty 17 7 0 10 -262144 -1
-1;
#X text 110 11 initialize udpsend obect;
#X text 450 3 some example sound for testing;
#X connect 1 0 10 0;
#X connect 2 0 3 0;
#X connect 2 1 4 0;
#X connect 3 0 9 0;
#X connect 4 0 9 0;
#X connect 5 0 6 0;
#X connect 6 0 7 0;
#X connect 7 0 9 0;
#X connect 8 0 5 0;
#X connect 9 0 0 0;
#X connect 10 0 2 0;
