#N canvas 286 244 1065 654 10;
#X obj 238 348 tgl 15 0 empty empty empty 17 7 0 10 -262144 -1 -1 0
1;
#X obj 50 -19 loadbang;
#X obj 50 68 t b b;
#X msg 43 105 connect localhost 8005;
#X msg 80 140 format 16bit;
#X obj 364 18 osc~ 440;
#X obj 361 47 *~ 220;
#X obj 357 77 osc~;
#X obj 50 2 bng 15 250 50 0 empty empty empty 17 7 0 10 -262144 -1
-1;
#X text 110 58 initialize udpsend obect;
#X text 450 3 some example sound for testing;
#X obj 138 319 mrpeach/net/udpsend~ 1 2048;
#X msg 136 -19 \; pd dsp 1;
#X obj 364 -13 nbx 5 14 -1e+37 1e+37 0 1 empty empty empty 0 -8 0 10
-262144 -1 -1 1 256;
#X connect 1 0 8 0;
#X connect 2 0 3 0;
#X connect 2 1 4 0;
#X connect 3 0 11 0;
#X connect 4 0 11 0;
#X connect 5 0 6 0;
#X connect 6 0 7 0;
#X connect 7 0 11 0;
#X connect 8 0 2 0;
#X connect 8 0 12 0;
#X connect 11 0 0 0;
#X connect 13 0 5 0;
